<svg width="601" height="76" viewBox="0 0 601 76" fill="none" xmlns="http://www.w3.org/2000/svg">
<path d="M75.7877 0H0V76H75.7877V0Z" fill="#00539B"/>
<path d="M51.3284 53.613C47.1925 56.3631 42.6451 58.4339 37.8577 59.7471V59.7471C41.3073 58.1315 44.5448 56.0955 47.4968 53.6854C48.8013 52.2704 49.8456 50.6352 50.5814 48.8554C49.479 49.9521 48.1787 50.829 46.7498 51.4395C43.8699 52.854 40.9087 54.0959 37.8818 55.1586V55.1586C40.2528 53.8758 42.421 52.2482 44.3159 50.3286C45.5247 49.0747 46.5327 47.6409 47.3041 46.0782C44.3506 47.9949 41.1793 49.5515 37.8577 50.715V50.715C39.5555 49.6561 41.0899 48.3544 42.4122 46.851C43.3054 45.8783 43.9067 44.673 44.1472 43.3734C42.3225 44.8279 40.1578 45.792 37.8577 46.1748V46.1748C38.7858 45.5473 39.5517 44.7076 40.0922 43.725C40.6327 42.7424 40.9323 41.6451 40.9663 40.5237C40.6625 40.9017 40.2869 41.2156 39.8612 41.4472C39.4356 41.6788 38.9683 41.8235 38.4864 41.8729C38.0046 41.9223 37.5178 41.8755 37.0541 41.7351C36.5905 41.5947 36.1592 41.3635 35.7853 41.055C35.189 40.3472 34.8718 39.4452 34.8937 38.5192V14.3692H31.7368V16.6152H27.6643V14.3692H24.6039V16.6152H20.5073V14.3692H17.4468V42.1176C17.6383 44.8016 18.379 47.4174 19.6227 49.8022C20.8664 52.187 22.5866 54.2898 24.6762 55.9796C28.7926 59.1074 33.1985 61.8327 37.8336 64.1182C41.9392 62.1406 45.845 59.7709 49.497 57.0423C51.3212 55.6054 52.7961 53.7722 53.8105 51.681C53.0474 52.3887 52.2427 53.05 51.4007 53.6613" fill="white"/>
<path d="M47.3523 36.225V16.6876H44.5328V39.9441C44.5688 41.0998 44.4389 42.2547 44.1472 43.3734C45.2585 42.5443 46.1373 41.4418 46.6988 40.1725C47.2603 38.9033 47.4854 37.5103 47.3523 36.1284" fill="white"/>
<path d="M50.9187 38.4709V14.3209H48.1957V41.9002C48.1832 43.3263 47.8968 44.7365 47.3522 46.054C48.4398 45.1031 49.3232 43.9405 49.9487 42.6369C50.5742 41.3334 50.9288 39.916 50.991 38.4709" fill="white"/>
<path d="M54.4852 39.9924V16.6393H51.6899V43.47C51.588 45.3102 51.2144 47.125 50.5814 48.8554C54.5334 46.4404 54.4852 39.9924 54.4852 39.9924Z" fill="white"/>
<path d="M58.0758 41.9002V14.3209H55.2563V45.885C55.0994 47.8581 54.619 49.7919 53.8346 51.6085C56.451 49.0658 57.9729 45.5995 58.0758 41.9485" fill="white"/>
<path d="M43.7858 34.462V14.3209H40.9663V38.1087C40.9663 38.1087 40.9663 39.8716 40.9663 40.5237C41.8892 39.8101 42.6334 38.8907 43.1395 37.8384C43.6457 36.7861 43.9 35.6301 43.8822 34.462" fill="white"/>
<path d="M99.8132 48.3H102.922C108.946 48.3 112.344 45.1846 112.344 39.123C112.344 33.0613 108.826 29.946 102.922 29.946H99.8132V48.3ZM91.7405 23.9568H102.753C113.308 23.9568 120.682 27.2653 120.682 39.0022C120.682 50.3527 113.067 54.3133 102.753 54.3133H91.7405V23.9568Z" fill="#00539B"/>
<path d="M147.888 54.1926H140.659V50.0146C139.905 51.5006 138.735 52.7346 137.293 53.5665C135.851 54.3983 134.199 54.792 132.538 54.6997C126.369 54.6997 123.887 50.3527 123.887 45.6676V31.5399H131.695V42.4798C131.695 46.7544 133.189 48.1792 135.309 48.1792C138.514 48.1792 140.129 45.9574 140.129 41.1033V31.4433H147.937L147.888 54.1926Z" fill="#00539B"/>
<path d="M152.515 21.5659H160.323V41.055H160.419L166.926 31.5399H175.48L167.625 41.9244L176.131 54.1926H166.661L160.419 42.9628H160.323V54.1926H152.515V21.5659Z" fill="#00539B"/>
<path d="M192.277 40.7169C192.277 38.0845 191.048 35.8869 187.939 35.8869C184.83 35.8869 183.77 38.0121 183.601 40.7169H192.277ZM183.674 45.1363C184.107 48.2758 186.493 49.4833 190.325 49.4833C192.73 49.4794 195.097 48.8822 197.217 47.7445V53.2749C194.565 54.2588 191.754 54.7419 188.927 54.6997C181.457 54.6997 175.77 50.3044 175.77 42.8421C175.77 35.3797 180.854 31.0086 187.819 31.0086C196.18 31.0086 199.217 36.9736 199.217 43.7115V45.1363H183.674Z" fill="#00539B"/>
<path d="M214.35 54.3133H218.688V40.4754H233.195V54.3133H237.532V23.9568H233.195V36.6597H218.688V23.9568H214.35V54.3133Z" fill="#00539B"/>
<path d="M261.148 49.2901C259.131 50.6634 256.766 51.4339 254.329 51.5119C253.367 51.5121 252.415 51.32 251.528 50.9469C250.642 50.5738 249.838 50.0271 249.165 49.339C248.492 48.6508 247.962 47.8349 247.607 46.9391C247.253 46.0433 247.08 45.0856 247.099 44.122H262.883C262.883 36.877 260.473 31.6123 253.244 31.6123C247.003 31.6123 242.882 36.2491 242.882 42.8179C242.882 50.0629 246.473 54.8929 254.329 54.8929C256.732 54.9152 259.113 54.4297 261.317 53.4681L261.148 49.2901ZM247.051 41.0791C247.044 39.4746 247.662 37.9307 248.774 36.776C249.885 35.6213 251.403 34.947 253.003 34.8967C253.781 34.906 254.547 35.0776 255.255 35.4006C255.962 35.7236 256.595 36.191 257.112 36.7728C257.629 37.3546 258.019 38.038 258.258 38.7795C258.496 39.521 258.578 40.3042 258.497 41.0791H247.051ZM268.739 37.1668C270.568 35.7058 272.835 34.9059 275.173 34.8967C279.246 34.8967 280.643 36.8529 280.643 40.6927C279.029 40.6927 277.896 40.6927 276.306 40.6927C272.089 40.6927 266.016 42.4315 266.016 47.9377C266.016 52.7677 269.366 54.8446 274.137 54.8446C275.465 54.8716 276.779 54.5785 277.97 53.9901C279.161 53.4017 280.194 52.5353 280.981 51.4636V51.4636V54.3133H284.788C284.651 52.8686 284.595 51.4173 284.62 49.9663V40.8135C284.62 34.7518 282.065 31.6365 275.727 31.6365C273.176 31.6683 270.679 32.3855 268.498 33.7134L268.739 37.1668ZM280.643 45.6918C280.679 46.497 280.541 47.3005 280.238 48.0473C279.936 48.7941 279.476 49.4667 278.89 50.0192C278.305 50.5717 277.607 50.9911 276.845 51.2487C276.083 51.5063 275.274 51.5961 274.474 51.5119C273.454 51.572 272.451 51.2288 271.681 50.556C270.91 49.8832 270.434 48.9345 270.354 47.9136C270.354 44.0013 275.824 43.639 278.041 43.639C278.908 43.639 279.776 43.639 280.643 43.639V45.6918ZM291.222 54.2892H295.295V21.735H291.222V54.2892ZM313.609 32.1195H307.753V25.6956L303.657 26.9997V32.1195H298.572V35.428H303.633V48.3C303.633 52.7194 306.235 54.7239 310.452 54.7239C311.632 54.6861 312.8 54.4828 313.923 54.1201V50.715C313.093 51.2358 312.13 51.5043 311.151 51.4878C310.657 51.4818 310.17 51.3709 309.722 51.1625C309.274 50.954 308.875 50.6527 308.552 50.2784C308.228 49.9042 307.988 49.4654 307.846 48.9912C307.704 48.517 307.665 48.0179 307.729 47.5272V35.4522H313.585L313.609 32.1195ZM317.802 54.2892H321.875V44.0496C321.875 38.64 323.971 34.8967 328.598 34.8967C332.165 35.1141 333.418 37.6498 333.418 42.8179V54.2892H337.37V41.055C337.37 35.0899 334.815 31.5399 329.08 31.5399C327.656 31.4588 326.237 31.7582 324.967 32.4074C323.696 33.0567 322.621 34.0324 321.851 35.2348V35.2348V21.735H317.778L317.802 54.2892Z" fill="#00539B"/>
<path d="M374.842 37.9155C374.867 40.4516 374.227 42.9498 372.986 45.1605L366.817 38.1087C370.022 36.6838 373.468 34.0756 373.468 30.2116C373.468 25.3816 369.902 23.3289 365.95 23.3289C361.612 23.3289 358.046 25.599 358.046 30.5739C358.214 33.1892 359.328 35.6535 361.178 37.5049C357.106 39.1471 354.407 41.7553 354.407 46.368C354.407 51.4636 358.19 54.8446 364.166 54.8446C365.783 54.9805 367.408 54.737 368.914 54.1333C370.42 53.5296 371.765 52.5825 372.842 51.367L375.252 54.3133H380.746L375.468 48.3C377.55 45.2211 378.75 41.6296 378.938 37.9155H374.842ZM359.058 46.0299C359.058 43.0353 361.01 41.6104 363.323 40.0407L370.552 48.6139C369.886 49.4743 369.041 50.1792 368.075 50.6796C367.11 51.18 366.048 51.464 364.962 51.5119C364.209 51.5576 363.454 51.4506 362.743 51.1974C362.032 50.9442 361.379 50.55 360.823 50.0383C360.268 49.5266 359.821 48.9079 359.509 48.2192C359.198 47.5305 359.028 46.7859 359.01 46.0299H359.058ZM362.19 30.6463C362.135 30.1416 362.188 29.6306 362.347 29.1485C362.507 28.6664 362.768 28.2245 363.114 27.853C363.459 27.4815 363.881 27.1891 364.349 26.996C364.818 26.8029 365.323 26.7136 365.829 26.734C366.328 26.6758 366.833 26.7339 367.305 26.9037C367.777 27.0735 368.203 27.3505 368.551 27.713C368.899 28.0754 369.158 28.5135 369.309 28.9931C369.46 29.4726 369.498 29.9806 369.42 30.4773C369.42 33.0372 366.697 34.8967 364.865 35.7661C363.366 34.455 362.412 32.6282 362.19 30.6463ZM401.398 54.2891H407.253L413.904 27.7242L420.507 54.2891H426.098L435.424 23.9568H430.821L423.592 49.9421L416.893 23.9568H410.748L404.265 49.9421L397.036 23.9568H392.216L401.398 54.2891Z" fill="#00539B"/>
<path d="M453.738 49.2901C451.721 50.6634 449.356 51.4339 446.918 51.5119C445.957 51.5121 445.005 51.32 444.118 50.9469C443.231 50.5738 442.428 50.0271 441.755 49.339C441.082 48.6508 440.552 47.8349 440.197 46.9391C439.843 46.0433 439.67 45.0856 439.689 44.122H455.449C455.449 36.877 453.039 31.6123 445.689 31.6123C439.448 31.6123 435.327 36.2491 435.327 42.8179C435.327 50.0629 438.918 54.8929 446.774 54.8929C449.177 54.9123 451.558 54.4269 453.762 53.4681L453.738 49.2901ZM439.641 41.0791C439.628 39.4768 440.24 37.9329 441.348 36.7776C442.456 35.6222 443.971 34.9471 445.569 34.8967C446.348 34.9026 447.118 35.0718 447.828 35.3933C448.539 35.7149 449.174 36.1817 449.694 36.7639C450.213 37.3461 450.606 38.0307 450.846 38.7738C451.086 39.517 451.168 40.3022 451.087 41.0791H439.641Z" fill="#00539B"/>
<path d="M460.51 54.2892H464.606V21.735H460.51V54.2892ZM471.667 54.2892H475.739V21.735H471.667V54.2892ZM480.463 44.2669H491.596V41.055H480.438L480.463 44.2669ZM495.957 54.2892H504.03C510.199 54.2892 515.573 52.7436 515.573 46.2231C515.574 44.3346 514.839 42.5205 513.524 41.1672C512.21 39.8139 510.42 39.0284 508.537 38.9781V38.9781C512.368 38.0121 514.778 35.911 514.778 31.7331C514.778 26.1061 510.44 24.0775 504.151 24.0775H495.957V54.2892ZM500.295 40.4754H503.115C506.85 40.4754 510.97 41.1274 510.97 45.8125C510.97 49.918 507.452 50.6425 503.548 50.6425H500.295V40.4754ZM500.295 27.5068H504.85C507.38 27.5068 510.44 28.4245 510.44 32.047C510.44 36.5148 506.898 36.877 502.681 36.877H500.271L500.295 27.5068ZM538.394 49.2418C536.375 50.6114 534.011 51.3816 531.574 51.4636C530.612 51.4638 529.66 51.2717 528.774 50.8986C527.887 50.5255 527.084 49.9788 526.41 49.2906C525.737 48.6025 525.208 47.7866 524.853 46.8908C524.498 45.995 524.326 45.0373 524.345 44.0737H540.153C540.153 36.8287 537.743 31.564 530.393 31.564C524.128 31.564 520.007 36.2008 520.007 42.7696C520.007 50.0146 523.622 54.8446 531.478 54.8446C533.881 54.864 536.261 54.3786 538.466 53.4197L538.394 49.2418ZM524.272 41.0308C524.265 39.4263 524.884 37.8824 525.995 36.7277C527.107 35.573 528.624 34.8987 530.225 34.8484C531.004 34.8543 531.774 35.0235 532.484 35.345C533.194 35.6666 533.83 36.1335 534.349 36.7156C534.869 37.2978 535.261 37.9824 535.501 38.7255C535.741 39.4687 535.824 40.2539 535.743 41.0308H524.272ZM545.141 54.2409H549.214V32.1195H545.141V54.2409ZM549.479 22.5078H544.876V27.1204H549.431L549.479 22.5078ZM555.768 54.2409H559.841V44.0013C559.841 38.5917 561.937 34.8484 566.588 34.8484C570.131 35.0658 571.263 37.6015 571.263 42.7696V54.2409H575.336V41.055C575.336 35.0899 572.781 31.5399 567.046 31.5399C565.588 31.4826 564.142 31.8286 562.867 32.5399C561.592 33.2513 560.537 34.3006 559.817 35.5729V35.5729V32.1195H555.865L555.768 54.2409ZM600.928 32.0712H597.168V35.3797C596.488 34.0872 595.433 33.0312 594.143 32.3502C592.853 31.6692 591.388 31.3952 589.939 31.564C583.264 31.564 580.059 37.6498 580.059 43.3492C580.059 49.0486 583.192 54.2409 589.505 54.2409C590.923 54.2843 592.331 53.9972 593.619 53.4021C594.907 52.807 596.04 51.9201 596.927 50.8115V52.9851C596.927 57.6943 594.373 60.5923 590.084 60.5923C587.295 60.6052 584.546 59.9248 582.083 58.612L581.649 62.3794C584.184 63.3735 586.88 63.8894 589.602 63.9009C597.53 63.9009 601 60.0369 601 53.299L600.928 32.0712ZM590.397 51.0048C586.565 51.0048 584.228 47.334 584.228 43.1802C584.228 39.3886 586.276 34.8967 590.397 34.8967C594.518 34.8967 596.855 38.8573 596.855 43.47C596.937 44.3922 596.835 45.3216 596.552 46.2032C596.27 47.0849 595.815 47.901 595.213 48.6034C594.611 49.3057 593.875 49.8801 593.047 50.2925C592.22 50.705 591.319 50.9471 590.397 51.0048Z" fill="#00539B"/>
</svg>
